<?xml version="1.0" encoding="UTF-8" standalone="no"?>
<!-- Created with Inkscape (http://www.inkscape.org/) -->

<svg
   width="297mm"
   height="420mm"
   viewBox="0 0 297 420"
   version="1.1"
   id="svg5"
   xml:space="preserve"
   inkscape:version="1.2.1 (9c6d41e410, 2022-07-14)"
   sodipodi:docname="1.svg"
   xmlns:inkscape="http://www.inkscape.org/namespaces/inkscape"
   xmlns:sodipodi="http://sodipodi.sourceforge.net/DTD/sodipodi-0.dtd"
   xmlns="http://www.w3.org/2000/svg"
   xmlns:svg="http://www.w3.org/2000/svg"><sodipodi:namedview
     id="namedview7"
     pagecolor="#ffffff"
     bordercolor="#000000"
     borderopacity="0.25"
     inkscape:showpageshadow="2"
     inkscape:pageopacity="0.0"
     inkscape:pagecheckerboard="0"
     inkscape:deskcolor="#d1d1d1"
     inkscape:document-units="mm"
     showgrid="false"
     inkscape:zoom="0.93539563"
     inkscape:cx="1022.562"
     inkscape:cy="405.17615"
     inkscape:window-width="1920"
     inkscape:window-height="1017"
     inkscape:window-x="-8"
     inkscape:window-y="-8"
     inkscape:window-maximized="1"
     inkscape:current-layer="layer1" /><defs
     id="defs2"><inkscape:path-effect
       effect="spiro"
       id="path-effect2340"
       is_visible="true"
       lpeversion="1" /><inkscape:path-effect
       effect="spiro"
       id="path-effect2336"
       is_visible="true"
       lpeversion="1" /><inkscape:path-effect
       effect="spiro"
       id="path-effect2324"
       is_visible="true"
       lpeversion="1" /><inkscape:path-effect
       effect="spiro"
       id="path-effect2318"
       is_visible="true"
       lpeversion="1" /><inkscape:path-effect
       effect="spiro"
       id="path-effect2314"
       is_visible="true"
       lpeversion="1" /><inkscape:path-effect
       effect="spiro"
       id="path-effect2310"
       is_visible="true"
       lpeversion="1" /><inkscape:path-effect
       effect="spiro"
       id="path-effect2306"
       is_visible="true"
       lpeversion="1" /><inkscape:path-effect
       effect="spiro"
       id="path-effect1566"
       is_visible="true"
       lpeversion="1" /><inkscape:path-effect
       effect="spiro"
       id="path-effect1562"
       is_visible="true"
       lpeversion="1" /></defs><g
     inkscape:label="Слой 1"
     inkscape:groupmode="layer"
     id="layer1"><path
       style="fill:none;stroke:#d8126c;stroke-width:0.3;stroke-dasharray:none;stroke-opacity:1"
       d="m 121.5562,340.01733 -104.425664,33.195 0.0078,-18.85675 -1.9626,-0.58753 1.500077,-5.7753 0.475024,-3.86269 -0.0115,-251.158453 0.150306,-2.457321 0.424286,-1.997679 0.7425,-1.926964 1.007678,-1.873928 1.202143,-1.644108 1.472379,-1.492445 1.625083,-1.250064 1.912598,-1.062554 1.849226,-0.73833 2.050714,-0.477321 2.050714,-0.176786 2.2275,0.141429 1.714822,0.335893 1.838571,0.61875 1.378929,0.512678 56.305566,23.959923 0.693785,0.43127 0.500026,0.50628 0.353748,0.57735 0.274018,0.77786 0.08839,0.68946 0.02652,1.21098 0.0088,42.03081 77.014991,0.1096 1.17506,0.24376 0.95695,0.71619 0.65411,1.15795 8.23944,25.90228 56.35806,0.0322 0.72482,0.13259 0.68063,0.31821 0.61875,0.45081 0.52075,0.56629 0.39377,0.72503 24.55125,77.11644 2.10011,5.25025 4.33772,7.11286 -2.15011,1.33757 6.06281,18.87596 -63.8059,20.36736 -1.08491,-3.25399 -1.17506,-2.88764 -0.54208,-1.15962 -0.84416,-1.6883 -1.13143,-2.14795 -2.85761,-4.57962"
       id="path356" /><path
       style="fill:none;stroke:#d8126c;stroke-width:0.3;stroke-dasharray:none;stroke-opacity:1"
       d="m 89.404559,329.11679 c -0.02756,-0.66631 -0.04006,-1.33324 -0.0375,-2.00012 0.0043,-1.1133 0.05054,-2.22607 0.112506,-3.33766 0.07676,-1.37697 0.177649,-2.7527 0.312518,-4.1252 0.134716,-1.37094 0.303345,-2.73865 0.512525,-4.10022 0.355142,-2.31165 0.827066,-4.60474 1.38757,-6.87536 0.592378,-2.39974 1.283926,-4.77537 2.087607,-7.11284 0.948632,-2.75905 2.053339,-5.46427 3.30209,-8.1011 0.992575,-2.0959 2.076122,-4.14864 3.244015,-6.15214 1.44038,-2.47094 3.00957,-4.86767 4.72018,-7.15984 1.76212,-2.36118 3.67275,-4.60944 5.67482,-6.7709 1.36792,-1.47683 2.77917,-2.91391 4.24286,-4.29588 1.00466,-0.94857 2.03405,-1.87119 3.09375,-2.75786 0.42423,-0.35496 0.85333,-0.70417 1.29053,-1.04304 0.52261,-0.40507 1.05659,-0.7952 1.59108,-1.18445 0.65842,-0.4795 1.31776,-0.95774 1.97999,-1.43197 1.60299,-1.14791 3.22438,-2.27319 4.91465,-3.28821 1.02468,-0.61533 2.07356,-1.18945 3.12911,-1.75018 2.10446,-1.11792 4.23763,-2.18373 6.41732,-3.14679 1.86626,-0.82458 3.76593,-1.57349 5.6925,-2.24517 2.05839,-0.71764 4.14741,-1.34708 6.25821,-1.89161 2.02626,-0.52272 4.07283,-0.96724 6.13446,-1.32589 1.58902,-0.27643 3.18699,-0.50186 4.7909,-0.67179 1.48736,-0.15759 2.97947,-0.26743 4.47268,-0.35357 1.84251,-0.10629 3.6879,-0.17653 5.53339,-0.15911 2.45118,0.0231 4.89902,0.20091 7.33661,0.45964 2.61396,0.27745 5.21925,0.64831 7.79625,1.16679 2.85897,0.57521 5.68082,1.3318 8.45035,2.24518 3.19427,1.05345 6.31831,2.3151 9.36965,3.73018 2.77857,1.28858 5.50058,2.70625 8.09678,4.33125 1.46919,0.91959 2.89717,1.90501 4.27822,2.95232"
       id="path1560"
       inkscape:path-effect="#path-effect1562"
       inkscape:original-d="m 89.404559,329.11679 c -0.0081,-0.6581 -0.02474,-1.33313 -0.0375,-2.00012 -0.01275,-0.66696 0.07527,-2.22482 0.112506,-3.33766 0.03724,-1.11281 0.208608,-2.74987 0.312518,-4.1252 0.103907,-1.37533 0.341948,-2.73323 0.512525,-4.10022 0.170577,-1.367 0.925311,-4.5833 1.38757,-6.87536 0.462259,-2.29203 1.392002,-4.74162 2.087607,-7.11284 0.695606,-2.37123 2.201659,-5.40047 3.30209,-8.1011 1.100434,-2.70065 2.162945,-4.10117 3.244015,-6.15214 1.08108,-2.051 3.14705,-4.77295 4.72018,-7.15984 1.57313,-2.38686 3.78348,-4.51366 5.67482,-6.7709 1.89134,-2.25721 2.82884,-2.86366 4.24286,-4.29588 1.41402,-1.43221 2.06276,-1.8383 3.09375,-2.75786 1.03098,-0.91955 0.86062,-0.69508 1.29053,-1.04304 0.42992,-0.34792 1.06098,-0.78937 1.59108,-1.18445 0.53009,-0.39509 1.32026,-0.95438 1.97999,-1.43197 0.65974,-0.47758 3.2767,-2.19188 4.91465,-3.28821 1.63795,-1.09634 2.08634,-1.16652 3.12911,-1.75018 1.04277,-0.58366 4.27848,-2.09759 6.41732,-3.14679 2.13884,-1.04919 3.79526,-1.49652 5.6925,-2.24517 1.89723,-0.74866 4.1724,-1.26081 6.25821,-1.89161 2.08581,-0.6308 4.08991,-0.88367 6.13446,-1.32589 2.04456,-0.44223 3.1942,-0.4476 4.7909,-0.67179 1.5967,-0.22419 2.98205,-0.23545 4.47268,-0.35357 1.49063,-0.11812 3.68919,-0.10581 5.53339,-0.15911 1.8442,-0.0533 4.89134,0.30669 7.33661,0.45964 2.44527,0.15295 5.19776,0.77813 7.79625,1.16679 2.59848,0.38866 5.63383,1.49705 8.45035,2.24518 2.81653,0.74813 6.2467,2.48705 9.36965,3.73018 3.12295,1.24313 5.39812,2.88776 8.09678,4.33125 2.69867,1.44348 2.85241,1.96848 4.27822,2.95232" /><path
       style="fill:none;stroke:#d8126c;stroke-width:0.3;stroke-dasharray:none;stroke-opacity:1"
       d="m 215.59018,262.72125 c -0.0275,0.38514 -0.0581,0.77006 -0.0917,1.15471 -0.16716,1.91163 -0.41002,3.81581 -0.60003,5.7253 -0.12171,1.22316 -0.22174,2.44847 -0.30001,3.67517"
       id="path1564"
       inkscape:path-effect="#path-effect1566"
       inkscape:original-d="m 215.59018,262.72125 c -0.0303,0.38517 -0.0609,0.77007 -0.0917,1.15471 -0.0308,0.38464 -0.39975,3.81712 -0.60003,5.7253 -0.20027,1.90815 -0.19975,2.45038 -0.30001,3.67517" /><path
       style="fill:none;stroke:#d8126c;stroke-width:0.3;stroke-dasharray:none;stroke-opacity:1"
       d="m 214.59844,273.27643 c -0.49742,-0.39299 -0.99775,-0.78229 -1.50094,-1.16787 -1.13119,-0.8668 -2.27697,-1.71488 -3.44732,-2.52802 -3.68997,-2.56374 -7.62157,-4.77713 -11.71508,-6.62963 -1.85614,-0.83999 -3.74651,-1.60636 -5.67529,-2.26261 -2.26164,-0.7695 -4.57288,-1.38653 -6.90035,-1.9251 -2.52687,-0.58471 -5.07685,-1.07788 -7.6504,-1.40007 -3.1282,-0.39163 -6.28583,-0.52975 -9.43798,-0.47503 -4.83898,0.084 -9.67354,0.62339 -14.39679,1.67868 -2.15358,0.48116 -4.28302,1.06912 -6.38197,1.75018 -2.34636,0.76134 -4.65507,1.63918 -6.91232,2.63411 -1.68134,0.74108 -3.3342,1.54714 -4.95,2.42196 -1.57073,0.85042 -3.10594,1.76552 -4.61411,2.72251 -1.39,0.88201 -2.75769,1.80003 -4.08375,2.77553 -1.67393,1.23141 -3.28034,2.5536 -4.82625,3.94232 -1.13499,1.01958 -2.23761,2.07519 -3.30589,3.16447 -2.38964,2.43661 -4.60755,5.04235 -6.61928,7.79923 -1.63189,2.23635 -3.12756,4.57115 -4.50023,6.97534 -0.76156,1.33385 -1.48552,2.68944 -2.1571,4.07078 -0.69003,1.4193 -1.32457,2.86542 -1.90929,4.33125 -0.96154,2.41047 -1.78832,4.87419 -2.49267,7.37195 -0.65673,2.32889 -1.207286,4.6883 -1.62643,7.07144 -0.550471,3.12983 -0.873831,6.29937 -0.972322,9.47571 -0.03617,1.16637 -0.04206,2.33368 -0.01767,3.50036"
       id="path2304"
       inkscape:path-effect="#path-effect2306"
       inkscape:original-d="m 214.59844,273.27643 c -0.50005,-0.38902 -1.00037,-0.7783 -1.50094,-1.16787 -0.50058,-0.38955 -2.29795,-1.68508 -3.44732,-2.52802 -1.14937,-0.84296 -7.80979,-4.41949 -11.71508,-6.62963 -3.9053,-2.21014 -3.78327,-1.50814 -5.67529,-2.26261 -1.89203,-0.75447 -4.59997,-1.28314 -6.90035,-1.9251 -2.30039,-0.64197 -5.1,-0.93312 -7.6504,-1.40007 -2.55039,-0.46696 -6.29172,-0.31642 -9.43798,-0.47503 -3.14626,-0.1586 -9.5976,1.11939 -14.39679,1.67868 -4.7992,0.5593 -4.25438,1.16705 -6.38197,1.75018 -2.12758,0.58313 -4.60795,1.75634 -6.91232,2.63411 -2.30437,0.87777 -3.29974,1.61491 -4.95,2.42196 -1.65027,0.80706 -3.07581,1.81526 -4.61411,2.72251 -1.5383,0.90723 -2.72223,1.8506 -4.08375,2.77553 -1.36151,0.92491 -3.21723,2.62848 -4.82625,3.94232 -1.60901,1.31384 -2.20366,2.10989 -3.30589,3.16447 -1.10223,1.05455 -4.41259,5.19975 -6.61928,7.79923 -2.20669,2.59945 -2.99989,4.6505 -4.50023,6.97534 -1.50034,2.32484 -1.4378,2.71412 -2.1571,4.07078 -0.7193,1.35667 -1.27259,2.88776 -1.90929,4.33125 -0.63669,1.44349 -1.66151,4.9149 -2.49267,7.37195 -0.83116,2.45708 -1.08402,4.71456 -1.62643,7.07144 -0.542409,2.35689 -0.647951,6.31741 -0.972322,9.47571 -0.324372,3.15831 -0.01151,2.33384 -0.01767,3.50036" /><path
       style="fill:none;stroke:#d8126c;stroke-width:0.3;stroke-dasharray:none;stroke-opacity:1"
       d="m 98.505006,328.57392 -9.100449,0.54287"
       id="path2308"
       inkscape:path-effect="#path-effect2310"
       inkscape:original-d="m 98.505006,328.57392 c -3.033218,0.18121 -6.0667,0.36216 -9.100449,0.54287" /><path
       style="fill:none;stroke:#d8126c;stroke-width:0.3;stroke-dasharray:none;stroke-opacity:1"
       d="m 104.85535,276.80163 c -0.52516,-1.23981 -0.96815,-2.51442 -1.32507,-3.8127 -0.42738,-1.55455 -0.73081,-3.1401 -1.02505,-4.72525 -0.18055,-0.97265 -0.35785,-1.94616 -0.50003,-2.92515 -0.11457,-0.78883 -0.20629,-1.58098 -0.27501,-2.37512"
       id="path2312"
       inkscape:path-effect="#path-effect2314"
       inkscape:original-d="m 104.85535,276.80163 c -0.44143,-1.27064 -0.88312,-2.54154 -1.32507,-3.8127 -0.44195,-1.27116 -0.6831,-3.14989 -1.02505,-4.72525 -0.34195,-1.57535 -0.33309,-1.94984 -0.50003,-2.92515 -0.16694,-0.97531 -0.18308,-1.58314 -0.27501,-2.37512" /><path
       style="fill:none;stroke:#d8126c;stroke-width:0.3;stroke-dasharray:none;stroke-opacity:1"
       d="m 101.73019,262.96341 c -0.0783,-1.37611 -0.13391,-2.75351 -0.1668,-4.13145 -0.0508,-2.12699 -0.0474,-4.25536 0.0177,-6.38196 0.0431,-1.4096 0.11339,-2.81838 0.21214,-4.22518 0.14967,-2.13226 0.36478,-4.25959 0.61875,-6.38196 0.22846,-1.90919 0.48844,-3.815 0.81321,-5.71018 0.33834,-1.97434 0.74686,-3.93628 1.20215,-5.88697 0.3619,-1.55056 0.75338,-3.09415 1.16678,-4.63178 0.40765,-1.51626 0.83704,-3.02804 1.36125,-4.50804 0.32415,-0.91516 0.68435,-1.81751 1.07839,-2.70482 0.64172,-1.44502 1.37458,-2.85232 2.24518,-4.17214 0.8068,-1.22309 1.73018,-2.36816 2.74018,-3.42965 0.72456,-0.76149 1.49376,-1.48024 2.29822,-2.15678 2.04552,-1.72025 4.32308,-3.16811 6.7639,-4.25707 1.96433,-0.87637 4.03323,-1.51989 6.15032,-1.9001 0.82748,-0.14861 1.66215,-0.25712 2.50012,-0.32502"
       id="path2316"
       inkscape:path-effect="#path-effect2318"
       inkscape:original-d="m 101.73019,262.96341 c -0.0553,-1.37689 -0.11093,-2.75404 -0.1668,-4.13145 -0.0559,-1.37741 0.012,-4.25438 0.0177,-6.38196 0.006,-2.12759 0.14169,-2.81652 0.21214,-4.22518 0.0704,-1.40866 0.41276,-4.25438 0.61875,-6.38196 0.20598,-2.12759 0.54241,-3.80653 0.81321,-5.71018 0.27081,-1.90366 0.8017,-3.92438 1.20215,-5.88697 0.40044,-1.96258 0.77812,-3.08759 1.16678,-4.63178 0.38867,-1.5442 0.90777,-3.0051 1.36125,-4.50804 0.45349,-1.50294 0.71919,-1.80295 1.07839,-2.70482 0.3592,-0.90187 1.49705,-2.78117 2.24518,-4.17214 0.74813,-1.39098 1.82705,-2.28617 2.74018,-3.42965 0.91313,-1.14348 1.53241,-1.43759 2.29822,-2.15678 0.7658,-0.7192 4.50953,-2.83779 6.7639,-4.25707 2.25437,-1.4193 4.10048,-1.26647 6.15032,-1.9001 2.04983,-0.63363 1.66701,-0.21641 2.50012,-0.32502" /><path
       style="fill:none;stroke:#d8126c;stroke-width:0.3;stroke-dasharray:none;stroke-opacity:1"
       d="m 130.73168,202.16031 56.50287,0.0125"
       id="path2320" /><path
       style="fill:none;stroke:#d8126c;stroke-width:0.3;stroke-dasharray:none;stroke-opacity:1"
       d="m 187.23455,202.17281 c 1.49126,0.0459 2.97755,0.25166 4.42522,0.61253 1.62123,0.40413 3.19357,1.00286 4.67525,1.77509 1.62737,0.84817 3.14791,1.90791 4.47522,3.17517 1.06202,1.01397 1.99612,2.15574 2.85015,3.35017 0.60657,0.84834 1.17406,1.72462 1.70008,2.62513"
       id="path2322"
       inkscape:path-effect="#path-effect2324"
       inkscape:original-d="m 187.23455,202.17281 c 1.47534,0.20444 2.95041,0.40862 4.42522,0.61253 1.47482,0.20392 3.1171,1.18366 4.67525,1.77509 1.55814,0.59144 2.98374,2.11704 4.47522,3.17517 1.49148,1.05812 1.90036,2.23371 2.85015,3.35017 0.94978,1.11646 1.13365,1.75035 1.70008,2.62513" /><path
       style="fill:none;stroke:#d8126c;stroke-width:0.3;stroke-dasharray:none;stroke-opacity:1"
       d="m 205.36047,213.7109 1.58488,4.45151 8.34063,26.23756"
       id="path2326" /><path
       style="fill:none;stroke:#d8126c;stroke-width:0.3;stroke-dasharray:none;stroke-opacity:1"
       d="m 215.28598,244.39997 0.39483,15.01951 -10.88911,-6.27531 0.47502,-7.16912"
       id="path2328" /><path
       style="fill:none;stroke:#d8126c;stroke-width:0.3;stroke-dasharray:none;stroke-opacity:1"
       d="m 205.26672,245.97505 -0.49583,-3.51344 -0.56571,-2.61644 -1.04304,-3.57107 -5.28589,-16.70624 -0.98495,-2.26302 -1.57508,-2.18761 -1.71884,-1.54383 -2.13761,-1.26257 -2.48763,-0.85004 -1.74221,-0.16251 -56.13448,-0.0394"
       id="path2330" /><path
       style="fill:none;stroke:#d8126c;stroke-width:0.3;stroke-dasharray:none;stroke-opacity:1"
       d="m 131.09545,211.25888 -2.36009,0.40665 -2.66063,0.85742 -2.48384,1.29053 -2.28937,1.61759 -1.99768,1.96232 -0.89277,1.07839 -0.83089,1.16679 -0.66295,1.16679 -1.21982,2.61642 -1.5292,5.31241"
       id="path2332" /><path
       style="fill:none;stroke:#d8126c;stroke-width:0.3;stroke-dasharray:none;stroke-opacity:1"
       d="m 114.16821,228.73419 c -0.33539,1.33056 -0.65364,2.66544 -0.95464,4.0042 -0.54643,2.43038 -1.03617,4.87442 -1.41429,7.33661 -0.23723,1.54473 -0.43043,3.09597 -0.60107,4.64946 -0.19762,1.79914 -0.36507,3.60215 -0.45964,5.40964 -0.0755,1.44237 -0.10449,2.88691 -0.10607,4.33125 -0.002,1.46758 0.0251,2.9351 0.0707,4.40197 0.0425,1.36884 0.10146,2.73718 0.17679,4.10461"
       id="path2334"
       inkscape:path-effect="#path-effect2336"
       inkscape:original-d="m 114.16821,228.73419 c -0.31795,1.335 -0.63616,2.66973 -0.95464,4.0042 -0.31848,1.33447 -0.94259,4.89134 -1.41429,7.33661 -0.47169,2.44527 -0.40045,3.09991 -0.60107,4.64946 -0.20062,1.54956 -0.30616,3.6067 -0.45964,5.40964 -0.15348,1.80295 -0.0704,2.88777 -0.10607,4.33125 -0.0356,1.44349 0.0474,2.93491 0.0707,4.40197 0.0233,1.46706 0.11812,2.73667 0.17679,4.10461" /><path
       style="fill:none;stroke:#d8126c;stroke-width:0.3;stroke-dasharray:none;stroke-opacity:1"
       d="m 110.87999,262.97193 c 0.1042,0.91484 0.22799,1.82745 0.37126,2.73699 0.16782,1.06537 0.36236,2.12653 0.58339,3.18214"
       id="path2338"
       inkscape:path-effect="#path-effect2340"
       inkscape:original-d="m 110.87999,262.97193 c 0.12402,0.91259 0.24777,1.82492 0.37126,2.73699 0.12349,0.91207 0.38919,2.12169 0.58339,3.18214" /><path
       style="fill:none;stroke:#d8126c;stroke-width:0.3;stroke-dasharray:none;stroke-opacity:1"
       d="m 111.83464,268.89106 -6.97929,7.91057"
       id="path2342" /><path
       style="fill:none;stroke:#d8126c;stroke-width:0.3;stroke-dasharray:none;stroke-opacity:1"
       d="m 91.000447,256.25089 -0.01767,-9.05143 -23.879344,-0.0118 0.0044,-35.94636 34.433437,-0.0221 4.30915,-9.04701 -47.776337,0.0177 -0.0442,54.10527 z"
       id="path2344" /><path
       style="fill:none;stroke:#d8126c;stroke-width:0.3;stroke-dasharray:none;stroke-opacity:1"
       d="m 83.399182,98.466941 -2.195039,4.938329 -7.725394,-3.37517 2.14811,-4.870546"
       id="path2346" /><path
       style="fill:none;stroke:#d8126c;stroke-width:0.3;stroke-dasharray:none;stroke-opacity:1"
       d="m 17.140128,110.25563 5.986052,-0.05 0.025,8.55044 -6.010665,-0.025"
       id="path2348" /><path
       style="fill:none;stroke:#d8126c;stroke-width:0.3;stroke-dasharray:none;stroke-opacity:1"
       d="m 17.142333,158.40808 h 5.983847 l 0.05,-8.55044 -6.034239,0.025"
       id="path2350" /><path
       style="fill:none;stroke:#d8126c;stroke-width:0.3;stroke-dasharray:none;stroke-opacity:1"
       d="m 17.144275,200.82275 5.994405,-1e-5 -0.0125,-8.43793 -5.98229,0.025"
       id="path2352" /><path
       style="fill:none;stroke:#d8126c;stroke-width:0.3;stroke-dasharray:none;stroke-opacity:1"
       d="m 17.14686,257.26741 5.976711,-0.009 0.0088,8.53875 -5.985161,-0.009"
       id="path2354" /><path
       style="fill:none;stroke:#d8126c;stroke-width:0.3;stroke-dasharray:none;stroke-opacity:1"
       d="m 17.150499,336.74219 h 6.000682 l -0.025,-8.45045 -5.97607,-0.05"
       id="path2356" /><path
       style="fill:none;stroke:#d8126c;stroke-width:0.3;stroke-dasharray:none;stroke-opacity:1"
       d="m 73.98251,355.14012 0.03767,-10.47869 5.780892,-0.0354 0.04799,8.6492"
       id="path2358" /><path
       style="fill:none;stroke:#d8126c;stroke-width:0.3;stroke-dasharray:none;stroke-opacity:1"
       d="m 273.21393,270.83882 -5.65028,1.8501 2.55013,7.90041 5.64642,-1.82296"
       id="path2360" /><path
       style="fill:none;stroke:#d8126c;stroke-width:0.3;stroke-dasharray:none;stroke-opacity:1"
       d="m 266.31146,248.92507 -5.72932,1.81011 -2.50648,-8.0728 5.64811,-1.86532"
       id="path2362" /><path
       style="fill:none;stroke:#d8126c;stroke-width:0.3;stroke-dasharray:none;stroke-opacity:1"
       d="m 251.69109,203.00192 -5.68493,1.9104 -2.57223,-8.13214 5.67687,-1.88303"
       id="path2364" /><path
       style="fill:none;stroke:#d8126c;stroke-width:0.3;stroke-dasharray:none;stroke-opacity:1"
       d="m 139.25422,149.72687 -1.1e-4,6.02134 -8.52244,-0.0903 0.0753,-5.94309"
       id="path2366" /><path
       style="fill:none;stroke:#d8126c;stroke-width:0.3;stroke-dasharray:none;stroke-opacity:1"
       d="m 108.06914,149.68249 -0.001,5.93795 -8.431589,0.0747 2.65e-4,-6.02469"
       id="path2368" /><path
       style="fill:none;stroke:#d8126c;stroke-width:0.3;stroke-dasharray:none;stroke-opacity:1"
       d="m 118.76464,328.14963 -0.21214,-5.48034 -8.20286,-0.35359 0.28286,2.26288 -1.90929,0.21214 0.10608,4.33226 z"
       id="path2370" /><path
       style="fill:none;stroke:#d8126c;stroke-width:0.3;stroke-dasharray:none;stroke-opacity:1"
       d="m 145.81285,279.53356 -2.22749,-4.49035 -2.29822,1.16678 -6.04607,3.8893 3.11143,4.10141 5.445,-3.57105 z"
       id="path2372" /><path
       style="fill:none;stroke:#d8126c;stroke-width:0.3;stroke-dasharray:none;stroke-opacity:1"
       d="m 177.38678,275.07856 0.99,-5.02071 3.14679,0.91929 6.22286,1.90929 -1.90929,4.70249 -5.37429,-1.69714 z"
       id="path2374" /><path
       style="fill:none;stroke:#d8126c;stroke-width:0.3;stroke-dasharray:none;stroke-opacity:1"
       d="m 210.69321,298.94463 7.89294,-4.4796 -3.89472,-5.27529 -6.85583,5.17527"
       id="path2376" /><path
       style="fill:none;stroke:#d8126c;stroke-width:0.3;stroke-opacity:1"
       d="m 213.94607,274.95481 -5.63544,-4.76602 -5.25027,-3.17518 -3.72519,-1.67508 -8.60044,16.35083 13.85071,11.20058 z"
       id="path267673" /><path
       style="fill:none;stroke:#d8126c;stroke-width:0.3;stroke-opacity:1"
       d="m 123.5563,305.8406 -13.45068,-14.22572 2.68367,-4.5856 4.27821,-5.23285 4.17214,-3.74787 12.10982,12.72857 z"
       id="path268337" /><path
       style="fill:none;stroke:#d8126c;stroke-width:0.3;stroke-opacity:1"
       d="m 118.5525,322.66929 0.3675,-5.45311 1.28613,-5.60028 1.72298,-5.38768 0.57928,-1.4959"
       id="path268339" /><path
       style="fill:none;stroke:#d8126c;stroke-width:0.3;stroke-opacity:1"
       d="m 121.5562,340.01733 -1.2712,-3.80627 -1.04304,-5.17982 -0.47732,-2.88161"
       id="path268341" /><path
       style="fill:none;stroke:#d8126c;stroke-width:0.3;stroke-opacity:1"
       d="m 132.26615,289.63847 6.08635,-5.43777"
       id="path268343" /><path
       style="fill:none;stroke:#d8126c;stroke-width:0.3;stroke-opacity:1"
       d="m 145.81285,279.53356 5.49487,-2.1694 7.17536,-2.02512 4.72549,-0.70244 4.68482,-0.21215 4.49036,0.1768 5.00303,0.47731"
       id="path268345" /><path
       style="fill:none;stroke:#d8126c;stroke-width:0.3;stroke-opacity:1"
       d="m 185.83714,277.58892 5.63567,2.69722"
       id="path268347" /><path
       style="fill:none;stroke:#d8126c;stroke-width:0.3;stroke-opacity:1"
       d="m 207.8356,294.36501 -2.48975,-2.93203"
       id="path268349" /><path
       style="fill:none;stroke:#a8c928;stroke-width:0.600001;stroke-linecap:round;stroke-linejoin:round;stroke-opacity:1"
       d="M 0,0 297,420"
       id="path337" /><path
       style="fill:none;stroke:#a8c928;stroke-width:0.600001;stroke-linecap:round;stroke-linejoin:round;stroke-opacity:1"
       d="M 0,420 297,0"
       id="path1032" /></g></svg>
